<?xml version="1.0" encoding="UTF-8" standalone="no"?>
<svg
   xmlns:dc="http://purl.org/dc/elements/1.1/"
   xmlns:cc="http://creativecommons.org/ns#"
   xmlns:rdf="http://www.w3.org/1999/02/22-rdf-syntax-ns#"
   xmlns:svg="http://www.w3.org/2000/svg"
   xmlns="http://www.w3.org/2000/svg"
   xmlns:sodipodi="http://sodipodi.sourceforge.net/DTD/sodipodi-0.dtd"
   xmlns:inkscape="http://www.inkscape.org/namespaces/inkscape"
   version="1.1"
   id="Layer_1"
   x="0px"
   y="0px"
   viewBox="0 0 1614.1002 1614.1002"
   enable-background="new 0 0 1614.1002 1614.1002"
   xml:space="preserve"
   sodipodi:docname="Shutter-Icon.svg"
   inkscape:export-filename="/ext/Projekte/justasec-vue/assets/shutterIcon.png"
   inkscape:export-xdpi="11.895172"
   inkscape:export-ydpi="11.895172"
   inkscape:version="0.92.5 (2060ec1f9f, 2020-04-08)"><metadata
   id="metadata21"><rdf:RDF><cc:Work
       rdf:about=""><dc:format>image/svg+xml</dc:format><dc:type
         rdf:resource="http://purl.org/dc/dcmitype/StillImage" /><dc:title></dc:title></cc:Work></rdf:RDF></metadata><defs
   id="defs19">
	
	
	
	
	
	
</defs><sodipodi:namedview
   pagecolor="#ffffff"
   bordercolor="#666666"
   borderopacity="1"
   objecttolerance="10"
   gridtolerance="10"
   guidetolerance="10"
   inkscape:pageopacity="0"
   inkscape:pageshadow="2"
   inkscape:window-width="1920"
   inkscape:window-height="1020"
   id="namedview17"
   showgrid="false"
   inkscape:zoom="0.48146987"
   inkscape:cx="770.77904"
   inkscape:cy="807.05011"
   inkscape:window-x="0"
   inkscape:window-y="0"
   inkscape:window-maximized="1"
   inkscape:current-layer="Layer_1" />
<path
   inkscape:connector-curvature="0"
   id="path2"
   d="m 1111.4918,1167.7117 c 12.699,-133.3132 10.5593,-258.6179 8.2264,-320.4229 l -143.7966,249.063 0.2117,0.3142 c -0.0488,0.033 -0.2675,0.1794 -0.64,0.4279 l -0.493,0.8541 h -0.7924 c -17.7061,11.7334 -154.6073,101.3115 -316.7206,175.4233 -101.9248,46.5959 -193.8531,78.1162 -273.2319,93.6855 -51.2694,10.0562 -97.4708,13.4342 -138.3306,10.1848 144.3978,142.1158 342.5173,229.8084 561.1253,229.8084 60.0491,0 118.5476,-6.6301 174.8169,-19.1731 29.5822,-34.9309 54.8084,-82.5996 75.3447,-142.5306 25.5803,-74.6485 43.8427,-168.0582 54.2801,-277.6346 z"
   style="fill:#63273b;fill-opacity:1" /><path
   inkscape:connector-curvature="0"
   id="path4"
   d="m 639.0999,516.152 h 0.7925 c 17.7064,-11.7336 154.6073,-101.3115 316.7205,-175.4233 101.9247,-46.5958 193.853,-78.1162 273.2318,-93.6854 51.2694,-10.0563 97.4708,-13.4343 138.3307,-10.1849 C 1223.7776,94.7427 1025.6581,7.0501 807.0501,7.0501 c -60.0491,0 -118.5476,6.6301 -174.817,19.173 -29.582,34.9311 -54.8083,82.5997 -75.3447,142.5306 -25.5801,74.6484 -43.8427,168.0583 -54.2801,277.6346 -12.699,133.3133 -10.5593,258.618 -8.2264,320.423 l 143.7965,-249.063 -0.2115,-0.3142 c 0.0487,-0.0328 0.2673,-0.1794 0.6399,-0.4278 z"
   style="fill:#58adbf;fill-opacity:0.94117647" /><path
   inkscape:connector-curvature="0"
   id="path6"
   d="m 1234.75,271.2556 c -77.4375,15.1711 -167.4641,46.0602 -267.5786,91.8093 -121.8022,55.659 -229.2493,120.1644 -281.6075,153.0872 h 287.593 l 0.1664,-0.3403 c 0.0529,0.0258 0.2892,0.1418 0.6906,0.3403 h 0.9865 l 0.396,0.6862 c 19.0148,9.4673 165.0419,83.2381 310.2812,186.5763 91.3157,64.9715 164.5774,128.8236 217.75,189.783 34.4314,39.4731 60.5011,77.8907 78.1187,114.9889 16.6426,-64.2667 25.5039,-131.6661 25.5039,-201.1363 0,-209.0386 -80.1853,-399.3416 -211.4622,-541.8555 -44.9881,-8.0972 -98.7911,-6.0956 -160.838,6.0609 z"
   style="fill:#63273b;fill-opacity:1" /><path
   inkscape:connector-curvature="0"
   id="path8"
   d="M 1484.9116,909.5518 C 1433.0543,850.0745 1361.2903,787.5538 1271.613,723.7265 1162.51,646.0722 1052.9231,585.2729 998.232,556.3908 l 143.7966,249.063 0.3779,-0.0261 c 0,0.0587 0.022,0.3212 0.051,0.7682 l 0.493,0.8542 -0.3961,0.6861 c 1.3085,21.2008 10.4347,184.5495 -6.4392,361.9996 -10.6091,111.5674 -29.2759,206.9398 -55.4819,283.4685 -16.969,49.5552 -37.2048,91.3409 -60.5239,125.1475 261.8224,-72.1638 469.8517,-274.058 550.5938,-532.208 -15.4537,-43.1066 -44.1329,-88.8134 -85.7911,-136.592 z"
   style="fill:#58adbf;fill-opacity:1" /><path
   inkscape:connector-curvature="0"
   id="path10"
   d="m 379.3502,1342.8445 c 77.4375,-15.1711 167.4641,-46.0602 267.5786,-91.8092 121.8022,-55.6591 229.2494,-120.1644 281.6077,-153.0873 H 640.9433 l -0.1664,0.3403 c -0.0529,-0.026 -0.2892,-0.1418 -0.6906,-0.3403 h -0.9865 l -0.396,-0.6862 C 619.689,1087.7945 473.6618,1014.0237 328.4225,910.6856 237.1069,845.7141 163.8453,781.862 110.6726,720.9026 76.2411,681.4296 50.1714,643.012 32.5538,605.9138 15.9113,670.1805 7.0501,737.58 7.0501,807.0501 c 0,209.0385 80.1852,399.3415 211.4622,541.8554 44.9881,8.0972 98.791,6.0955 160.8379,-6.061 z"
   style="fill:#58adbf;fill-opacity:1" /><path
   inkscape:connector-curvature="0"
   id="path12"
   d="m 129.1885,704.5483 c 51.8573,59.4772 123.6213,121.998 213.2985,185.8253 109.1033,77.6542 218.6901,138.4536 273.3813,167.3356 l -143.7968,-249.0628 -0.3779,0.026 c -0.004,-0.0586 -0.0217,-0.3212 -0.0505,-0.7681 l -0.4931,-0.8542 0.3961,-0.6862 c -1.3083,-21.2006 -10.4347,-184.5494 6.4392,-361.9998 10.6092,-111.5673 29.2759,-206.9398 55.482,-283.4684 16.969,-49.5551 37.2048,-91.341 60.5239,-125.1474 -261.8224,72.1639 -469.8518,274.058 -550.5938,532.2081 15.4537,43.1066 44.1329,88.8133 85.7911,136.5919 z"
   style="fill:#63273b;fill-opacity:1" />
<g
   inkscape:groupmode="layer"
   id="layer1"
   inkscape:label="Layer 1" /><g
   inkscape:groupmode="layer"
   id="layer2"
   inkscape:label="Layer 2" /></svg>