<?xml version="1.0" encoding="UTF-8" standalone="no"?>
<svg
   xmlns:dc="http://purl.org/dc/elements/1.1/"
   xmlns:cc="http://creativecommons.org/ns#"
   xmlns:rdf="http://www.w3.org/1999/02/22-rdf-syntax-ns#"
   xmlns:svg="http://www.w3.org/2000/svg"
   xmlns="http://www.w3.org/2000/svg"
   xmlns:sodipodi="http://sodipodi.sourceforge.net/DTD/sodipodi-0.dtd"
   xmlns:inkscape="http://www.inkscape.org/namespaces/inkscape"
   sodipodi:docname="VinuteHeart.svg"
   inkscape:version="1.0 (4035a4fb49, 2020-05-01)"
   id="svg8"
   version="1.1"
   viewBox="0 0 135.46666 135.46667"
   height="512"
   width="512">
  <defs
     id="defs2" />
  <sodipodi:namedview
     inkscape:window-maximized="1"
     inkscape:window-y="0"
     inkscape:window-x="0"
     inkscape:window-height="1014"
     inkscape:window-width="1920"
     units="px"
     showgrid="false"
     inkscape:document-rotation="0"
     inkscape:current-layer="layer1"
     inkscape:document-units="mm"
     inkscape:cy="256"
     inkscape:cx="256"
     inkscape:zoom="0.7"
     inkscape:pageshadow="2"
     inkscape:pageopacity="0.0"
     borderopacity="1.0"
     bordercolor="#666666"
     pagecolor="#ffffff"
     id="base" />
  <metadata
     id="metadata5">
    <rdf:RDF>
      <cc:Work
         rdf:about="">
        <dc:format>image/svg+xml</dc:format>
        <dc:type
           rdf:resource="http://purl.org/dc/dcmitype/StillImage" />
        <dc:title></dc:title>
      </cc:Work>
    </rdf:RDF>
  </metadata>
  <g
     id="layer1"
     inkscape:groupmode="layer"
     inkscape:label="Ebene 1">
    <path
       inkscape:transform-center-y="-12.46766"
       inkscape:transform-center-x="1.0162719"
       d="M 125.42012,70.718078 C 124.87392,88.76128 35.440523,136.84791 20.087754,127.35328 4.7349852,117.85866 7.8074388,16.363749 23.706412,7.8151748 39.605384,-0.7333996 125.96632,52.674876 125.42012,70.718078 Z"
       inkscape:randomized="0"
       inkscape:rounded="0.150941"
       inkscape:flatsided="true"
       sodipodi:arg2="1.0774603"
       sodipodi:arg1="0.030262756"
       sodipodi:r2="26.714893"
       sodipodi:r1="69.046974"
       sodipodi:cy="68.628844"
       sodipodi:cx="56.404762"
       sodipodi:sides="3"
       id="path833"
       style="fill:none;fill-opacity:1;stroke:#000000;stroke-width:6;stroke-linecap:round;stroke-miterlimit:4;stroke-dasharray:none;stroke-opacity:1"
       sodipodi:type="star" />
  </g>
  <g
     inkscape:label="Ebene 2"
     id="layer2"
     inkscape:groupmode="layer">
    <path
       style="fill:none;stroke:#000000;stroke-width:6;stroke-miterlimit:4;stroke-dasharray:none;stroke-opacity:1"
       id="path886"
       d="m 55.033327,96.537648 -1.05881,-1.05881 C 52.617367,94.121691 51.412314,93.214974 48.844262,91.255299 47.33502,90.050247 45.375345,88.693097 42.807293,86.581328 35.723214,81.152736 26.369422,73.606525 26.369422,62.895584 c 0,-10.863034 8.599171,-17.648774 16.595815,-17.648774 4.673971,0 8.90336,2.111769 12.06809,5.884875 3.170577,-3.9252 7.394116,-6.036969 12.068088,-6.036969 7.996643,0 16.595814,6.639496 16.595814,17.496681 0,11.313468 -10.71094,19.462204 -16.443722,23.837838 L 63.78459,89.14353 c -4.375632,3.316824 -5.884874,4.527726 -7.692456,6.335308 z M 42.965237,48.259445 c -6.487402,0 -13.57733,5.580686 -13.57733,14.636139 0,9.201699 8.447076,15.99329 15.238667,21.269787 2.714296,2.111769 4.527726,3.621011 6.036968,4.673971 1.959675,1.509242 3.17058,2.415957 4.375633,3.468917 1.509242,-1.509242 3.316824,-2.714295 6.937836,-5.580687 l 3.468917,-2.714294 C 72.840044,78.432591 80.684595,71.641 80.684595,62.591397 c 0,-8.90336 -7.089929,-14.484046 -13.57733,-14.484046 -4.223539,0 -7.996646,2.263863 -10.710941,6.335307 l -1.205055,1.807581 -1.205054,-1.807581 c -3.024333,-3.91935 -6.79744,-6.183213 -11.020978,-6.183213 z" />
  </g>
</svg>
